<svg xmlns="http://www.w3.org/2000/svg" width="64" height="64" viewBox="0 0 64 64"><rect x="0" y="0" width="64" height="64" rx="14.08" fill="#0D9488"/><path d="M25.2 51.8L15.9 51.8Q15.4 51.8 14.9 51.4Q14.5 51.0 14.5 50.4L14.5 50.4L14.5 13.6Q14.5 13.0 14.9 12.6Q15.4 12.2 15.9 12.2L15.9 12.2L32.1 12.2Q39.8 12.2 44.2 15.7Q48.6 19.2 48.6 25.5L48.6 25.5Q48.6 29.4 46.8 32.2Q45.0 35.0 42.0 36.6L42.0 36.6L49.4 50.0Q49.5 50.3 49.5 50.6L49.5 50.6Q49.5 51.1 49.2 51.5Q48.9 51.8 48.4 51.8L48.4 51.8L38.8 51.8Q37.7 51.8 37.1 51.3Q36.6 50.8 36.4 50.3L36.4 50.3L30.7 38.6L26.6 38.6L26.6 50.4Q26.6 51.0 26.2 51.4Q25.8 51.8 25.2 51.8L25.2 51.8ZM26.6 21.3L26.6 29.3L32.0 29.3Q34.0 29.3 35.0 28.2Q35.9 27.1 35.9 25.4L35.9 25.4Q35.9 23.7 35.0 22.5Q34.1 21.3 32.0 21.3L32.0 21.3L26.6 21.3Z" fill="#FFFFFF"/></svg>